<svg version="1.0" xmlns="http://www.w3.org/2000/svg" width="200" height="200" viewBox="0 0 200 200">
<path fill="#550099" d="M95 6 c-45 20-75 36-75 40 0 2 7 7 15 12 8 4 14 10 15 13 0 4 2 4 5 1 3-2 20-13 39-23 l34-19 36 20 c20 11 38 22 41 25 3 3 5 2 5-2 0-4 6-10 13-14 6-4 12-8 12-10 0-4-145-73-150-73 -2 0-43 18-90 40z"/>
<path fill="#5500cc" d="M51 63 c-18 10-33 22-33 26 -1 4 -2 21 -3 38 l-2 31 40 21 c23 12 43 21 46 21 3 0 23-9 45-21 l40-21 -3-35 c-2-19-3-36-3-39 0-2-15-14-32-24 l-33-20 -29 16 c-16 9-32 16-34 16 -3 0-2-3 1-7 4-4 3-5-3-4 -5 1-12 5-15 9 -4 8-8 8-34-4 l-30-14 34-16 c19-9 47-23 61-31 23-13 27-14 30-1 3 11 7 12 18 3 12-10 15-9 20 5 3 9 4 16 2 16 -2 0-17-7-33-16z m139 31 c0-5-42-34-46-34 -5 0-44 29-44 33 0 2 12 1 26-2 14-3 33-3 44 0 10 3 20 4 20 3z"/>
<path fill="#000066" d="M99 41c0 11-1 12-4 4 -2-6-2-12 0-15 3-3 4 0 4 11z"/>
<path fill="#8500ff" d="M45 82c-10 7-16 14-13 16 3 3 9 2 15-1 5-4 18-8 28-9 17-1 17-2-3-9 -12-4-22-8-23-8 0 0-2 5-4 11z"/>
<path fill="#8500ff" d="M152 79c-23 9-23 9-4 10 11 1 23 5 27 9 5 4 11 5 14 1 3-3 -1-9-9-14 -15-9-15-9-28-6z"/>
</svg>
